Coordinates
version=1
nRows=6
nColumns=63
inDegrees=yes

Units are S.I. units (second, meters, Newtons, ...)
If the header above contains a line with 'inDegrees', this indicates whether rotational values are in degrees (yes) or radians (no).

endheader
time	pelvis_tilt	pelvis_list	pelvis_rotation	pelvis_tx	pelvis_ty	pelvis_tz	hip_flexion_r	hip_adduction_r	hip_rotation_r	knee_angle_r	knee_angle_r_beta	ankle_angle_r	subtalar_angle_r	mtp_angle_r	hip_flexion_l	hip_adduction_l	hip_rotation_l	knee_angle_l	knee_angle_l_beta	ankle_angle_l	subtalar_angle_l	mtp_angle_l	L5_S1_Flex_Ext	L5_S1_Lat_Bending	L5_S1_axial_rotation	L4_L5_Flex_Ext	L4_L5_Lat_Bending	L4_L5_axial_rotation	L3_L4_Flex_Ext	L3_L4_Lat_Bending	L3_L4_axial_rotation	L2_L3_Flex_Ext	L2_L3_Lat_Bending	L2_L3_axial_rotation	L1_L2_Flex_Ext	L1_L2_Lat_Bending	L1_L2_axial_rotation	L1_T12_Flex_Ext	L1_T12_Lat_Bending	L1_T12_axial_rotation	Abs_r3	Abs_r2	Abs_r1	Abs_t1	Abs_t2	neck_flexion	neck_bending	neck_rotation	arm_flex_r	arm_add_r	arm_rot_r	elbow_flex_r	pro_sup_r	wrist_flex_r	wrist_dev_r	arm_flex_l	arm_add_l	arm_rot_l	elbow_flex_l	pro_sup_l	wrist_flex_l	wrist_dev_l
2.105263	-1.616507	-5.914537	94.608562	0.182208	0.749848	0.791480	8.668452	-3.337523	-12.918673	12.395847	0.216348	33.651177	12.225312	0.000000	7.771293	3.645150	14.056975	4.840158	0.084477	26.591200	-10.810667	0.000000	0.398544	0.032375	-0.736167	0.740135	0.043059	-0.782177	0.654767	0.078716	-0.782177	0.455496	0.078716	-0.644146	0.370088	0.066019	-0.598135	0.227728	0.050149	-0.552125	2.846757	0.366231	-4.094337	0.000000	0.000000	27.873079	3.493681	13.703117	15.681775	-19.059335	101.174209	14.769611	12.648691	9.686281	2.741246	-2.040272	-18.099735	46.169654	16.826855	54.925746	-1.524778	-5.826152
2.122807	-1.623955	-5.831525	94.647915	0.181753	0.750102	0.791332	8.413620	-3.328908	-12.988312	12.141772	0.211914	33.254392	12.027916	0.000000	7.685221	3.672328	13.891675	4.799169	0.083761	26.667945	-10.628021	0.000000	0.390433	0.037509	-0.736030	0.725073	0.049887	-0.782031	0.641442	0.091199	-0.782031	0.446226	0.091199	-0.644026	0.362556	0.076488	-0.598024	0.223093	0.058101	-0.552022	2.788822	0.424306	-4.093576	0.000000	0.000000	27.808310	3.046709	13.856173	15.912938	-19.324486	100.755870	14.641771	12.660435	9.846430	3.728084	-0.631718	-18.284820	56.704734	14.524605	43.934231	-1.451322	-9.152129
2.140351	-1.637574	-5.742241	94.632303	0.181369	0.750416	0.791139	8.167490	-3.326101	-13.056643	11.902532	0.207738	32.870919	11.860286	0.000000	7.576217	3.697085	13.658567	4.753313	0.082961	26.694424	-10.466772	0.000000	0.382016	0.042672	-0.734608	0.709442	0.056754	-0.780521	0.627614	0.103752	-0.780521	0.436606	0.103752	-0.642782	0.354740	0.087016	-0.596869	0.218284	0.066099	-0.550956	2.728701	0.482713	-4.085671	0.000000	0.000000	27.747947	2.597085	14.078604	16.123174	-19.628208	99.484437	14.674521	13.156100	9.748258	4.725171	0.632249	-18.494246	65.203905	12.638456	34.851410	-1.671785	-11.951667
2.157895	-1.655660	-5.645554	94.557539	0.181061	0.750802	0.790893	7.929400	-3.324670	-13.103637	11.677485	0.203811	32.506360	11.705017	0.000000	7.440421	3.718238	13.379168	4.700243	0.082035	26.658965	-10.350039	0.000000	0.373875	0.047929	-0.729809	0.694324	0.063746	-0.775422	0.614240	0.116535	-0.775422	0.427302	0.116535	-0.638583	0.347181	0.097737	-0.592970	0.213632	0.074242	-0.547357	2.670553	0.542185	-4.058977	0.000000	0.000000	27.687668	2.153240	14.345215	16.311429	-19.965924	97.449080	14.850168	14.103296	9.419223	5.612798	1.746497	-18.727327	71.611539	11.233294	27.687003	-2.178089	-14.059833
2.175439	-1.676116	-5.528606	94.454152	0.180792	0.751278	0.790595	7.680430	-3.329017	-13.178180	11.467799	0.200151	32.185257	11.611431	0.000000	7.265613	3.738898	13.165522	4.640949	0.081000	26.541600	-10.383002	0.000000	0.364667	0.053159	-0.725709	0.677223	0.070701	-0.771066	0.599111	0.129250	-0.771066	0.416778	0.129250	-0.634996	0.338630	0.108402	-0.589639	0.208371	0.082343	-0.544282	2.604779	0.601344	-4.036178	0.000000	0.000000	27.624662	1.751254	14.641682	16.590364	-20.358054	95.538762	15.103610	14.783746	8.907631	6.149667	2.725898	-19.009575	76.051877	10.350400	22.278555	-2.962028	-15.464839
2.192982	-1.696772	-5.405015	94.306039	0.180607	0.751808	0.790267	7.450124	-3.319179	-13.124215	11.286309	0.196983	31.890164	11.403660	0.000000	7.075683	3.741260	12.668077	4.586520	0.080050	26.486907	-10.070716	0.000000	0.356217	0.058191	-0.708253	0.661530	0.077394	-0.752519	0.585229	0.141486	-0.752519	0.407120	0.141486	-0.619721	0.330783	0.118663	-0.575455	0.203542	0.090138	-0.531190	2.544422	0.658269	-3.939090	0.000000	0.000000	27.562580	1.374924	14.901243	16.749050	-20.780635	92.605649	15.505424	16.283714	8.229417	6.478167	3.619379	-19.319797	78.556645	10.000635	18.740288	-3.995197	-16.086239
